<svg id="car-talk" xmlns="http://www.w3.org/2000/svg" viewBox="0 0 625 239.3">
  <path fill="#333" d="M345.9,171h-71V1.4h68.1c33.1,0,52.4,18.6,52.4,47.6s-12.4,31-21,35c10.2,4.8,23.3,15.5,23.3,38.1s-21.7,48.8-51.9,48.8ZM340.4,31h-32.4v39.1h32.4c14,0,21.9-7.9,21.9-19.5s-7.9-19.5-21.9-19.5ZM342.5,99.8h-34.5v41.7h34.5c15,0,22.1-9.5,22.1-20.9s-7.1-20.7-22.1-20.7Z"/>
  <path fill="#333" d="M431.6,171V1.4h33.1v169.6h-33.1Z"/>
  <path fill="#333" d="M608.8,153.1c-13.1,13.3-28.8,19.3-47.9,19.3s-33.3-6.2-45.7-18.6c-7.4-7.4-11.9-16-13.8-25.5-1.9-9.5-2.9-23.6-2.9-42.2s1-32.6,2.9-42.2c1.9-9.8,6.4-18.1,13.8-25.5,12.4-12.4,27.6-18.6,45.7-18.6,38.6,0,59.3,24.8,63.8,54.3h-33.4c-4-16.4-14-24.8-30.5-24.8s-16,3.1-21.2,9c-6.2,7.9-8.1,14-8.1,47.6s1.4,40,8.1,47.9c5,6,12.1,8.8,21.2,8.8s17.6-3.1,23.6-9.5c5-5.7,7.6-13.3,7.6-22.6v-6.4h-31.2v-27.6h64.1v24.8c0,24.8-4.5,39.3-16.2,51.7Z"/>
  <path fill="#333" d="M294.4,239h-19.5v-44.8h18.5c9.3,0,14.3,5.2,14.3,13s-3.5,7.9-4.9,8.9c1.8,1.1,5.5,3.5,5.5,9.7s-6,13.2-14,13.2ZM292.7,204.1h-6.8v7.3h6.8c3,0,4-1.9,4-3.7s-.9-3.6-4-3.6ZM293.3,221.2h-7.4v7.8h7.4c3,0,4-2.1,4-4s-1-3.9-4-3.9Z"/>
  <path fill="#333" d="M356.6,234.3c-3.3,3.3-7,5-12.5,5s-9.2-1.8-12.5-5c-4.7-4.7-4.5-11-4.5-17.7s-.2-13,4.5-17.7c3.3-3.3,7.1-5,12.5-5s9.2,1.8,12.5,5c4.7,4.7,4.5,11,4.5,17.7s.2,13-4.5,17.7ZM348.5,205.6c-.8-1.1-2.4-1.9-4.4-1.9s-3.6.9-4.4,1.9c-1,1.3-1.6,2.8-1.6,11s.6,9.6,1.6,10.9c.8,1.1,2.4,2,4.4,2s3.6-.9,4.4-2c1-1.3,1.6-2.8,1.6-10.9s-.6-9.7-1.6-11Z"/>
  <path fill="#333" d="M397.5,239.3c-9.3,0-16.9-6.3-16.9-16.1v-29.1h11v28.8c0,4.1,2.3,6.5,5.9,6.5s6-2.4,6-6.5v-28.8h11v29.1c0,9.8-7.7,16.1-17,16.1Z"/>
  <path fill="#333" d="M435.4,239v-44.8h11v35h18.8v9.8h-29.8Z"/>
  <path fill="#333" d="M512.9,234.6c-3.1,3.1-7.4,4.4-12.1,4.4h-16.6v-44.8h16.6c4.7,0,9,1.3,12.1,4.4,5.2,5.2,4.6,10.9,4.6,18s.6,12.8-4.6,18ZM505.3,206.5c-1-1.5-2.5-2.5-5.3-2.5h-4.8v25.2h4.8c2.8,0,4.3-1,5.3-2.5.9-1.3,1.2-2.5,1.2-10.1s-.3-8.8-1.2-10.1Z"/>
  <path fill="#333" d="M537.7,239v-44.8h30.4v9.8h-19.4v7.5h16.6v9.8h-16.6v7.9h19.4v9.8h-30.4Z"/>
  <path fill="#333" d="M611.1,239l-7.9-16.7h-3.7v16.7h-11v-44.8h17.7c9.9,0,15.3,7,15.3,14.4s-3.8,9.9-7.3,11.7l9.7,18.7h-12.8ZM605.7,204.1h-6.2v9h6.2c3,0,4.8-2.2,4.8-4.5s-1.8-4.5-4.8-4.5Z"/>
  <path fill="#d94900" d="M0,0v238.8h238.8V0H0ZM146.1,206.1l2.2-13-6-8.3,32-61.5,1.6-1,7.3-1.3,27.6,26.9,2.5,26.6-27.6,10.5,3.5-6.7-43.1,27.6ZM140.6,163.6l-9.3-.5v-5.7l-21.7,10.9-13.5,7.8-7.2-1,39.4-45.1,10.9-1,22.3-22.8,3.6,7.8-24.4,49.7ZM120.6,105.4h11.4l-36.3,49.7-21.7,3.1-16.6,15.5-22.8-1.1,65.3-81.8,13.5-1,30-23.8h11l-33.7,39.4ZM214,117.4l-26.2-17.8-14.6-54.8-29.6-.5-7.1,5.7-7.3-.9-17.8,18.6h-13.2l-55.7,70.5-14,1.4-17.2,25.1V11.4h216.1v127.4l-13.5-21.5Z"/>
</svg>