<svg id="brio" viewBox="0 0 1065 214" xmlns="http://www.w3.org/2000/svg">
  <path fill="#4bb25c" d="M213.500282,0 L213.500282,213.3 L0,213.3 L0,0 L213.500282,0 Z M131.123005,35.5 L82.377277,35.5 L82.377277,82.3 L35.5333333,82.3 L35.5333333,131 L82.377277,131 L82.377277,177.7 L131.123005,177.7 L131.123005,131 L177.866854,131 L177.866854,82.3 L131.123005,82.3 L131.123005,35.5 Z"/>
  <path fill="#333" d="M448.921127,157.3 C448.921127,178.6 443.015587,191.9 433.106291,201.8 C424.197934,210.7 412.687136,213.3 395.170704,213.3 L248.13277,213.3 L248.13277,168.4 L270.553803,168.4 L270.553803,48.6 L248.13277,48.6 L248.13277,0 L395.470986,0 C414.58892,0 424.498216,3 432.806009,11.3 C442.715305,21.5 446.819155,36.1 446.819155,52.7 C446.819155,85.3 435.508545,98.4 412.987418,104.6 L412.987418,105.2 C435.408451,111.1 448.921127,122.2 448.921127,157.3 Z M368.045258,86.1 C373.250141,86.1 375.452207,85.1 377.253897,83.2 C379.455962,80.7 380.957371,76.1 380.957371,65.3 C380.957371,54.8 379.756244,50.2 377.554178,48 C376.05277,46.5 373.850704,44.9 368.045258,44.9 L334.313615,44.9 L334.313615,86.1 L368.045258,86.1 Z M334.313615,168.4 L368.946103,168.4 C374.451268,168.4 376.953615,167.8 379.155681,165.6 C381.357746,163.4 382.859155,161.3 382.859155,147.1 C382.859155,133.2 381.658028,129.6 379.155681,127.1 C377.053709,124.9 374.551362,123.4 368.946103,123.4 L334.313615,123.4 L334.313615,168.4 Z M674.833052,168.4 L697.053897,168.4 L697.053897,213.3 L638.098592,213.3 C625.186479,213.3 620.58216,211.9 616.778592,208.2 C612.174272,203.6 609.671925,196.3 608.470798,160.2 C607.870235,144.2 606.96939,140.9 603.866479,137.9 C601.06385,135.1 597.360376,134.7 586.95061,134.7 L565.930892,134.7 L565.930892,168.4 L588.452019,168.4 L588.452019,213.3 L479.850141,213.3 L479.850141,168.4 L502.371268,168.4 L502.371268,48.6 L479.850141,48.6 L479.850141,0 L625.787042,0 C644.304413,0 656.315681,2.7 664.623474,11 C674.132394,20.5 676.634742,32.4 676.634742,59.2 C676.634742,97.4 667.125822,106.5 640.901221,111.4 L640.901221,112 C663.422347,116.9 673.231549,124.8 673.631925,155.9 C673.531831,159.6 674.53277,164.6 674.833052,168.4 Z M593.156432,89.8 C602.064789,89.8 605.467981,88.9 607.369765,87 C610.172394,83.9 610.772958,79.2 610.772958,68.1 C610.772958,57 610.172394,51.4 607.369765,48.3 C605.568075,46.5 602.164883,44.9 593.156432,44.9 L566.030986,44.9 L566.030986,89.8 L593.156432,89.8 Z M840.288263,168.4 L840.288263,213.3 L727.982911,213.3 L727.982911,168.4 L754.207512,168.4 L754.207512,48.6 L727.982911,48.6 L727.982911,0 L840.388357,0 L840.388357,48.6 L814.163756,48.6 L814.163756,168.3 L840.288263,168.3 L840.288263,168.4 Z M1006.24394,0 C1028.76507,0 1037.97371,3 1046.2815,11.3 C1058.89333,23.6 1066,47.8 1066,107.2 C1066,166.6 1058.89333,190.1 1046.2815,202.4 C1037.97371,210.7 1028.66498,213.2 1006.24394,213.2 L931.073427,213.2 C908.5523,213.2 899.343662,210.6 891.035869,202.3 C878.424038,190 871.317371,166 871.317371,106.6 C871.317371,47.2 878.424038,23.4 891.035869,11.1 C899.343662,2.8 908.652394,0 931.073427,0 L1006.24394,0 Z M941.583286,162.7 C943.384977,164.5 946.487887,164.7 955.79662,164.7 L981.720939,164.7 C990.929577,164.7 994.032488,164.6 995.934272,162.7 C998.036244,160.5 999.637746,154 999.637746,106.9 C999.637746,59.8 998.136338,53.2 995.934272,51 C994.132582,49.2 991.029671,48.7 981.720939,48.7 L955.79662,48.7 C946.487887,48.7 943.48507,49.3 941.583286,51.1 C939.481315,53.3 937.879812,59.8 937.879812,106.9 C937.879812,154.3 939.381221,160.5 941.583286,162.7 Z"/>
</svg>